<svg viewBox="0 0 1000 1000" xmlns="http://www.w3.org/2000/svg"><defs><linearGradient id="b" gradientTransform="rotate(-15 .5 .5)"><stop offset="0%" stop-color="#C4C4C4"/><stop offset="100%" stop-color="#F5F5F5"/></linearGradient><clipPath id="a"><path fill="currentColor" d="M912 641q-24 141-154 197.5t-266 80q-136 23.5-257.5-57t-135-221Q86 500 111.5 368T253 166Q369 96 511 63t254 65q112 98 141.5 235t5.5 278Z"/></clipPath></defs><g clip-path="url(#a)"><path fill="url(#b)" d="M912 641q-24 141-154 197.5t-266 80q-136 23.5-257.5-57t-135-221Q86 500 111.5 368T253 166Q369 96 511 63t254 65q112 98 141.5 235t5.5 278Z"/></g></svg>